<svg xmlns="http://www.w3.org/2000/svg" xmlns:xlink="http://www.w3.org/1999/xlink" version="1.1" x="0px" y="0px" viewBox="0 0 90 80" enable-background="new 0 0 90 90" xml:space="preserve"><g><path fill="#eee"  d="M52.748,10.605c-1.354-0.303-2.686,0.543-2.988,1.89l-14.398,63.91c-0.303,1.348,0.542,2.686,1.89,2.988   c0.185,0.042,0.37,0.063,0.552,0.063c1.143,0,2.175-0.79,2.437-1.951l14.397-63.911C54.94,12.247,54.095,10.909,52.748,10.605z"/><path fill="#eee" d="M29.338,24.016c-0.942-1.009-2.524-1.063-3.534-0.123L5.138,43.172C4.631,43.645,4.344,44.307,4.344,45   s0.288,1.355,0.794,1.828l20.666,19.278c0.482,0.449,1.094,0.672,1.705,0.672c0.669,0,1.336-0.267,1.829-0.795   c0.942-1.01,0.887-2.592-0.123-3.533L10.509,45l18.707-17.45C30.225,26.608,30.28,25.026,29.338,24.016z"/><path fill="#eee" d="M84.86,43.172L64.194,23.894c-1.009-0.942-2.591-0.886-3.533,0.123c-0.941,1.01-0.887,2.592,0.123,3.534L79.49,45   L60.784,62.45c-1.01,0.941-1.064,2.523-0.123,3.533c0.492,0.528,1.159,0.795,1.829,0.795c0.61,0,1.223-0.223,1.704-0.672   L84.86,46.828c0.507-0.473,0.795-1.135,0.795-1.828S85.367,43.645,84.86,43.172z"/></g></svg>
